<svg xmlns:dc="http://purl.org/dc/elements/1.1/" xmlns:cc="http://creativecommons.org/ns#" xmlns:rdf="http://www.w3.org/1999/02/22-rdf-syntax-ns#" xmlns:svg="http://www.w3.org/2000/svg" xmlns="http://www.w3.org/2000/svg" xmlns:sodipodi="http://sodipodi.sourceforge.net/DTD/sodipodi-0.dtd" xmlns:inkscape="http://www.inkscape.org/namespaces/inkscape" data-name="Layer 1" width="697.96287" height="631.46323" version="1.1" sodipodi:docname="logo.svg" inkscape:export-filename="/home/vitoria/Downloads/logo.png" inkscape:export-xdpi="150" inkscape:export-ydpi="150" inkscape:version="1.0.2 (394de47547, 2021-03-26)" style=""><rect id="backgroundrect" width="100%" height="100%" x="0" y="0" fill="none" stroke="none"/>
  <metadata id="metadata480">
    <rdf:RDF>
      <cc:Work rdf:about="">
        <dc:format>image/svg+xml</dc:format>
        <dc:type rdf:resource="http://purl.org/dc/dcmitype/StillImage"/>
        <dc:title/>
      </cc:Work>
    </rdf:RDF>
  </metadata>
  <defs id="defs478"/>
  <sodipodi:namedview pagecolor="#ffffff" bordercolor="#666666" borderopacity="1" objecttolerance="10" gridtolerance="10" guidetolerance="10" inkscape:pageopacity="0" inkscape:pageshadow="2" inkscape:window-width="1366" inkscape:window-height="700" id="namedview476" showgrid="false" inkscape:zoom="0.74127413" inkscape:cx="348.98145" inkscape:cy="307.2752" inkscape:window-x="0" inkscape:window-y="0" inkscape:window-maximized="1" inkscape:current-layer="a5f74472-7ecd-48f3-bbcf-6d4dac68fd10"/>
  
  
  
  
  
  
  
  
  
  
  
  
  
  
  
  
  
  
  
  
  
  
  
  
  
  
  
  
  
  
  
  
  
  
  
  
  
  
  
  
  
  
  
  
  
  
  
  
  
  
  
  
  
  
  
  
  
  
  
  
  
  
  
  
  
<g class="currentLayer" style=""><title>Layer 1</title><path d="M305.0536300537109,522.2519331591797 H13.829090053710956 a13.84469,13.84469 0 0 1 -13.82909,-13.8291 V113.0733231591797 a13.84468,13.84468 0 0 1 13.82909,-13.82909 H305.0536300537109 a13.84468,13.84468 0 0 1 13.82909,13.82909 V508.42283315917973 A13.84469,13.84469 0 0 1 305.0536300537109,522.2519331591797 z" fill="#fff" id="path348"/><path d="M146.31306005371096,202.1350031591797 a54.10671,54.10671 0 0 1 -37.34148,51.44415 c-0.3246200000000001,0.10327000000000001 -0.6490000000000001,0.20652 -0.97865,0.3048700000000001 c-1.40626,0.43272000000000005 -2.83221,0.80151 -4.28289,1.11622 a53.17173,53.17173 0 0 1 -7.97083,1.10638 q-1.7478000000000002,0.11800000000000002 -3.51578,0.11800000000000002 a53.99524,53.99524 0 0 1 -17.88405,-3.029 c-0.16711000000000004,-0.05900000000000001 -0.3342200000000001,-0.11800000000000002 -0.49653,-0.17700000000000002 a54.09488,54.09488 0 1 1 72.47021,-50.88358 z" fill="#fff" id="path350"/><circle cx="90.92752838134766" cy="211.65492248535156" r="26.316650390625" fill="#6c63ff" id="circle352" style="fill:#6fbf94;fill-opacity:0.94117647"/><path d="M92.46389005371094,225.83426315917967 l0.02737000000000001,-0.9834499999999999 c-1.8295599999999999,-0.05090000000000001 -3.44255,-0.16567 -4.65457,-1.05116 a3.02308,3.02308 0 0 1 -1.171,-2.22668 a1.7280900000000001,1.7280900000000001 0 0 1 0.5668700000000001,-1.42331 a2.97858,2.97858 0 0 1 3.04278,-0.026890000000000004 l0.8137000000000001,0.37311000000000005 L89.52867005371093,209.09261315917968 l-0.97432,0.1335 l1.32727,9.7 a3.47153,3.47153 0 0 0 -3.28384,0.47252000000000005 a2.6901900000000003,2.6901900000000003 0 0 0 -0.91478,2.20891 a3.999,3.999 0 0 0 1.57361,2.98636 C88.81390005371094,225.7319731591797 90.83770005371093,225.7886131591797 92.46389005371094,225.83426315917967 z" fill="#2f2e41" id="path354"/><rect x="78.43920135498047" y="210.06260681152344" width="5.296599864959717" height="0.9834499955177307" fill="#2f2e41" id="rect356"/><rect x="95.15780639648438" y="210.06260681152344" width="5.296599864959717" height="0.9834499955177307" fill="#2f2e41" id="rect358"/><path d="M98.40432005371093,248.44555315917967 a4.81423,4.81423 0 0 0 0.10828000000000002,-0.9834499999999999 a4.67877,4.67877 0 0 0 -4.67138,-4.6713700000000005 h-6.88413 a4.67553,4.67553 0 0 0 -4.67138,4.6713700000000005 a4.54308,4.54308 0 0 0 0.10800000000000001,0.98837 a26.42417,26.42417 0 0 0 -7.28222,3.60435 c-0.43290000000000006,0.29994000000000004 -0.8605200000000001,0.6244700000000001 -1.2686899999999999,0.9637600000000001 c0.16231000000000004,0.05900000000000001 0.3294200000000001,0.11800000000000002 0.49653,0.17700000000000002 a53.99524,53.99524 0 0 0 17.88405,3.029 q1.77014,0 3.51578,-0.11800000000000002 a53.17173,53.17173 0 0 0 7.97083,-1.10638 c1.45068,-0.31471000000000005 2.87663,-0.6835000000000001 4.28289,-1.11622 A26.65042,26.65042 0 0 0 98.40432005371093,248.44555315917967 z" fill="#2f2e41" id="path360"/><path d="M97.51931005371091,255.4821231591797 a3.61831,3.61831 0 0 0 -1.7801,0.6245 a53.17173,53.17173 0 0 0 7.97083,-1.10638 z" fill="#2f2e41" id="path362"/><path d="M114.79511005371091,205.40331315917967 L69.07763005371095,188.67850315917968 a1.96691,1.96691 0 0 1 -1.17142,-2.52292 l0.15466000000000002,-0.73121 c3.57044,-9.75984 15.40471,-15.90222 25.16455,-12.33178 l14.06831,5.14661 c9.75984,3.57044 14.00169,15.12739 10.43125,24.88723 l-0.40700000000000003,1.10546 A1.9668900000000002,1.9668900000000002 0 0 1 114.79511005371091,205.40331315917967 z" fill="#2f2e41" id="path364"/><path d="M117.25775005371094,206.3313431591797 c-63.72122,2.35119 -69.28913,-5.65524 -49.87372,-18.24525 l4.11891,-7.579 L118.70843005371091,197.7174731591797 z" fill="#2f2e41" id="path366"/><ellipse cx="54.295745849609375" cy="733.5584411621094" rx="2.2127599716186523" ry="4.179649829864502" transform="rotate(-73.26953887939453 -297.48333740234375,423.45428466796875) " fill="#2f2e41" id="ellipse368"/><path d="M92.22343005371096,257.6998031591797 a55.43048,55.43048 0 0 1 -18.37181,-3.11193 l-0.51322,-0.18300000000000002 a55.56481,55.56481 0 1 1 36.08925,0.5772 c-0.3494700000000001,0.11117000000000002 -0.6784000000000001,0.21561000000000002 -1.01262,0.31549000000000005 c-1.39666,0.42978000000000005 -2.8784400000000003,0.81586 -4.39238,1.14408 a54.76309,54.76309 0 0 1 -8.1928,1.13711 C94.64592005371094,257.6589831591797 93.42957005371096,257.6998031591797 92.22343005371096,257.6998031591797 zm0,-108.17925 a52.62192,52.62192 0 0 0 -17.87961,102.11049 l0.48716000000000004,0.17359000000000002 a52.47405,52.47405 0 0 0 17.39245,2.94483 c1.14012,0 2.28947,-0.03866000000000001 3.41626,-0.11477000000000002 a51.87031,51.87031 0 0 0 7.75846,-1.07637 c1.432,-0.31045000000000006 2.83209,-0.6754000000000001 4.161,-1.084 c0.3290600000000001,-0.09844000000000003 0.6414300000000001,-0.19784000000000004 0.9539200000000001,-0.29724 A52.62185,52.62185 0 0 0 92.22343005371096,149.5205531591797 z" fill="#ccc" id="path370"/><path d="M18.588250053710965,368.4136131591797 " fill="#f2f2f2" id="path372"/><path d="M305.0536300537109,522.2519331591797 H13.829090053710956 a13.84469,13.84469 0 0 1 -13.82909,-13.8291 V113.0733231591797 a13.84468,13.84468 0 0 1 13.82909,-13.82909 H305.0536300537109 a13.84468,13.84468 0 0 1 13.82909,13.82909 V508.42283315917973 A13.84469,13.84469 0 0 1 305.0536300537109,522.2519331591797 zM13.829090053710956,100.87118315917968 a12.216,12.216 0 0 0 -12.20214,12.20214 V508.42283315917973 a12.216,12.216 0 0 0 12.20214,12.20215 H305.0536300537109 a12.216,12.216 0 0 0 12.20214,-12.20215 V113.0733231591797 a12.216,12.216 0 0 0 -12.20214,-12.20214 z" fill="#ccc" id="path374"/><path d="M248.67603005371092,201.9244631591797 H166.26951005371092 a6.5193,6.5193 0 0 1 0,-13.03859 H248.67603005371092 a6.5193,6.5193 0 1 1 0,13.03859 z" fill="#e6e6e6" id="path376"/><path d="M275.56811005371094,223.9270731591797 H166.26951005371092 a6.5193,6.5193 0 0 1 0,-13.03859 h109.2986 a6.5193,6.5193 0 0 1 0,13.03859 z" fill="#e6e6e6" id="path378"/><path d="M248.55606005371095,308.3162131591797 H43.314610053710965 a6.5193,6.5193 0 1 1 0,-13.03859 H248.55606005371095 a6.5193,6.5193 0 0 1 0,13.03859 z" fill="#e6e6e6" id="path380"/><path d="M275.4481300537109,330.3188231591797 H43.314610053710965 a6.5193,6.5193 0 1 1 0,-13.03859 H275.4481300537109 a6.5193,6.5193 0 1 1 0,13.03859 z" fill="#e6e6e6" id="path382"/><path d="M248.55606005371095,380.8892531591797 H43.314610053710965 a6.51929,6.51929 0 1 1 0,-13.03858 H248.55606005371095 a6.51929,6.51929 0 0 1 0,13.03858 z" fill="#e6e6e6" id="path384"/><path d="M275.4481300537109,402.8918631591797 H43.314610053710965 a6.51929,6.51929 0 1 1 0,-13.03858 H275.4481300537109 a6.51929,6.51929 0 1 1 0,13.03858 z" fill="#e6e6e6" id="path386"/><path d="M248.55606005371095,453.46230315917967 H43.314610053710965 a6.51929,6.51929 0 1 1 0,-13.03858 H248.55606005371095 a6.51929,6.51929 0 0 1 0,13.03858 z" fill="#e6e6e6" id="path388"/><path d="M275.4481300537109,475.4649131591797 H43.314610053710965 a6.51929,6.51929 0 1 1 0,-13.03858 H275.4481300537109 a6.51929,6.51929 0 1 1 0,13.03858 z" fill="#e6e6e6" id="path390"/><path d="M684.1337800537109,423.00769315917967 l-291.22453,0.0002400000000000001 a13.84468,13.84468 0 0 1 -13.82911,-13.82908 l-0.0003300000000000001,-395.34951 a13.84469,13.84469 0 0 1 13.82909,-13.82911 l291.22453,-0.0002400000000000001 a13.84469,13.84469 0 0 1 13.82911,13.82909 l0.0003200000000000001,395.34951 A13.84467,13.84467 0 0 1 684.1337800537109,423.00769315917967 z" fill="#fff" id="path392"/><path d="M684.1337800537109,423.00769315917967 l-291.22453,0.0002400000000000001 a13.84468,13.84468 0 0 1 -13.82911,-13.82908 l-0.0003300000000000001,-395.34951 a13.84469,13.84469 0 0 1 13.82909,-13.82911 l291.22453,-0.0002400000000000001 a13.84469,13.84469 0 0 1 13.82911,13.82909 l0.0003200000000000001,395.34951 A13.84467,13.84467 0 0 1 684.1337800537109,423.00769315917967 zM392.9089000537109,1.6271831591796797 a12.216,12.216 0 0 0 -12.20214,12.20216 l0.0003300000000000001,395.3495 a12.216,12.216 0 0 0 12.20215,12.20214 l291.22454,-0.0002400000000000001 A12.216,12.216 0 0 0 696.3359100537109,409.1786131591797 l-0.0003200000000000001,-395.34951 A12.216,12.216 0 0 0 684.133430053711,1.626953159179692 z" fill="#ccc" id="path394"/><path d="M525.5296300537109,102.35194315917968 a54.08962,54.08962 0 1 1 -54.08967,-54.08959 A54.10671,54.10671 0 0 1 525.5296300537109,102.35194315917968 z" fill="#fff" id="path396"/><path d="M496.43928005371095,111.60722315917968 c-0.5907600000000001,34.5932 -52.04749,34.58783 -52.63325,-0.0010700000000000002 C444.3967500537109,77.0140631591797 495.8534300537109,77.0194431591797 496.43928005371095,111.60722315917968 z" fill="#6c63ff" id="path398" style="fill:#6fbf94;fill-opacity:0.94117647"/><path d="M469.078000053711,122.34452315917969 l-0.02737000000000001,-0.9834499999999999 c6.77815,0.905 8.2379,-7.49552 1.40218,-4.35492 l1.56039,-11.40329 l0.9743299999999999,0.13349000000000003 l-1.32726,9.7 C478.857720053711,114.36500315917968 476.195430053711,123.3273831591797 469.078000053711,122.34452315917969 z" fill="#2f2e41" id="path400"/><rect x="477.80609130859375" y="106.57286071777344" width="5.296599864959717" height="0.9834499955177307" fill="#2f2e41" id="rect402"/><rect x="461.0874938964844" y="106.57286834716797" width="5.296599864959717" height="0.9834499955177307" fill="#2f2e41" id="rect404"/><path d="M478.6535900537109,148.4019331591797 c1.03266,-6.9677500000000006 -7.125,-5.5909 -11.44243,-5.65974 a4.68023,4.68023 0 0 0 -4.56309,5.6548300000000005 a25.58847,25.58847 0 0 0 -9.09208,5.01559 a54.32367,54.32367 0 0 0 34.6322,0.3835100000000001 A25.45685,25.45685 0 0 0 478.6535900537109,148.4019331591797 z" fill="#2f2e41" id="path406"/><path d="M457.75003005371093,99.16016315917969 c4.87711,-2.81868 10.79159,-0.6562600000000001 15.82946,0.526 c9.55827,2.9382900000000003 22.962,-0.7410900000000001 24.12429,-12.12714 c1.20957,-10.58923 -13.27612,-16.491 -17.90609,-5.95164 l1.3481200000000002,-0.17620000000000002 c-15.01567,-22.31547 -41.135,-21.46913 -40.96321,9.21072 c-0.05567000000000001,0.9477900000000001 1.4196900000000001,0.94459 1.4748700000000001,-0.0005700000000000002 c-0.5528200000000001,-18.07915 11.41221,-30.43755 28.32579,-18.8191 a49.83115,49.83115 0 0 1 9.88878,10.3535 c1.76146,1.974 2.14424,-6.52733 10.57493,-4.30063 c9.27822,3.59448 6.25079,16.88013 -2.04229,19.79671 c-10.24677,5.235 -21.34437,-4.915 -31.39927,0.21394000000000005 a0.7384400000000001,0.7384400000000001 0 0 0 0.7446200000000002,1.27441 z" fill="#2f2e41" id="path408"/><path d="M471.44005005371093,157.91678315917972 a55.518,55.518 0 1 1 17.20421,-2.7177000000000002 A55.43053,55.43053 0 0 1 471.44005005371093,157.91678315917972 zm-0.00009000000000000003,-108.17925 A52.62192,52.62192 0 1 0 524.0544300537109,102.35194315917968 A52.674,52.674 0 0 0 471.43996005371093,49.73753315917969 z" fill="#ccc" id="path410"/><path d="M627.755920053711,102.68027315917968 l-82.40652,0.00007000000000000003 a6.51929,6.51929 0 0 1 0,-13.03859 l82.40652,-0.00006000000000000002 a6.51929,6.51929 0 1 1 0,13.03858 z" fill="#e6e6e6" id="path412"/><path d="M654.648020053711,124.6828631591797 l-109.2986,0.00009000000000000003 a6.5193,6.5193 0 1 1 0,-13.03859 l109.2986,-0.00009000000000000003 a6.51929,6.51929 0 0 1 0,13.03859 z" fill="#e6e6e6" id="path414"/><path d="M627.6360300537109,209.0720231591797 l-205.24145,0.00017000000000000007 a6.5193,6.5193 0 0 1 0,-13.03859 l205.24145,-0.00016000000000000004 a6.51929,6.51929 0 1 1 0,13.03858 z" fill="#e6e6e6" id="path416"/><path d="M654.5281300537109,231.0746131591797 l-232.13353,0.00019000000000000006 a6.5193,6.5193 0 1 1 0,-13.03859 l232.13353,-0.00019000000000000006 a6.51929,6.51929 0 0 1 0,13.03859 z" fill="#e6e6e6" id="path418"/><path d="M627.636090053711,281.6450731591797 l-205.24145,0.00017000000000000007 a6.5193,6.5193 0 0 1 0,-13.03859 l205.24145,-0.00017000000000000007 a6.51929,6.51929 0 0 1 0,13.03859 z" fill="#e6e6e6" id="path420"/><path d="M654.5281900537109,303.6476631591797 l-232.13353,0.00019000000000000006 a6.5193,6.5193 0 1 1 0,-13.03859 l232.13353,-0.00019000000000000006 a6.51929,6.51929 0 0 1 0,13.03859 z" fill="#e6e6e6" id="path422"/><path d="M627.6361500537109,354.21811315917967 l-205.24145,0.00017000000000000007 a6.51929,6.51929 0 1 1 0,-13.03858 l205.24145,-0.00017000000000000007 a6.51929,6.51929 0 1 1 0,13.03858 z" fill="#e6e6e6" id="path424"/><path d="M654.528250053711,376.22070315917966 l-232.13353,0.00019000000000000006 a6.51929,6.51929 0 1 1 0,-13.03858 l232.13353,-0.00019000000000000006 a6.51929,6.51929 0 0 1 0,13.03858 z" fill="#e6e6e6" id="path426"/><path d="M508.42271005371094,593.0243731591797 H217.19818005371093 a13.84469,13.84469 0 0 1 -13.8291,-13.8291 V183.8457731591797 a13.84469,13.84469 0 0 1 13.8291,-13.8291 H508.42271005371094 a13.84469,13.84469 0 0 1 13.8291,13.8291 v395.3495 A13.84469,13.84469 0 0 1 508.42271005371094,593.0243731591797 z" fill="#fff" id="path428" class=""/><path d="M241.48705005371096,271.79549315917967 a53.92579,53.92579 0 0 0 15.90227,38.3102 c0.42306000000000005,0.41800000000000004 0.8557200000000001,0.8359300000000001 1.29318,1.24407 a54.01435,54.01435 0 0 0 8.58572,6.54484 c0.5899200000000001,0.3638800000000001 1.18009,0.7130000000000001 1.7849,1.0523 a53.78428,53.78428 0 0 0 9.77541,4.29274 c0.5851200000000001,0.19178000000000003 1.18009,0.37372000000000005 1.7750599999999999,0.5408900000000001 a54.31267,54.31267 0 0 0 32.85714,-0.92442 c0.20649000000000003,-0.07377000000000002 0.41300000000000003,-0.14754000000000003 0.6146500000000001,-0.22128000000000003 a54.09429,54.09429 0 1 0 -72.58833,-50.83934 z" fill="#fff" id="path430"/><path d="M284.1540000537109,298.3071031591797 a16.7613,16.7613 0 0 1 -4.32915,11.347 c-2.78119,3.05219 -6.92159,5.07636 -11.09981,4.23887 c-3.84733,-0.77116 -6.97372,-4.13377 -6.58368,-8.2017 a6.07575,6.07575 0 0 1 7.507,-5.45575 c3.65482,0.94846 5.11106,6.21585 2.0655,8.68824 c-0.7308100000000001,0.5932700000000001 -1.78071,-0.4443100000000001 -1.04311,-1.0431 a3.6841600000000003,3.6841600000000003 0 0 0 -1.03874,-6.1067 a4.62957,4.62957 0 0 0 -6.03027,4.09386 c-0.24123000000000003,3.42942 2.38594,6.01205 5.6077200000000005,6.6201 c3.48529,0.6577700000000002 6.94084,-1.12607 9.30247,-3.5882 a15.22129,15.22129 0 0 0 4.16685,-10.59263 a0.7380000000000001,0.7380000000000001 0 0 1 1.47517,0 z" fill="#2f2e41" id="path432"/><circle cx="298.5585021972656" cy="281.36822509765625" r="26.316650390625" fill="#6c63ff" id="circle434" style="fill:#6fbf94;fill-opacity:0.94117647"/><path d="M297.21210005371097,292.5972231591797 l-0.02737000000000001,-0.98344 c1.8295599999999999,-0.05091000000000001 3.44254,-0.16567 4.65457,-1.05116 a3.02308,3.02308 0 0 0 1.171,-2.22668 a1.72808,1.72808 0 0 0 -0.5668700000000001,-1.42331 a2.97856,2.97856 0 0 0 -3.04278,-0.026890000000000004 l-0.8137000000000001,0.37311000000000005 l1.56041,-11.40329 l0.97432,0.1335 l-1.32727,9.7 a3.47153,3.47153 0 0 1 3.28384,0.47252000000000005 a2.6901900000000003,2.6901900000000003 0 0 1 0.91478,2.20891 a3.999,3.999 0 0 1 -1.57361,2.98636 C300.862090053711,292.4949431591797 298.8382900537109,292.5516131591797 297.21210005371097,292.5972231591797 z" fill="#2f2e41" id="path436"/><rect x="305.940185546875" y="276.8255615234375" width="5.296599864959717" height="0.9834499955177307" fill="#2f2e41" id="rect438" style="fill:#6fbf94;fill-opacity:0.94117647"/><rect x="289.2215881347656" y="276.8255615234375" width="5.296599864959717" height="0.9834499955177307" fill="#2f2e41" id="rect440"/><path d="M280.60359005371095,323.7805331591797 a54.31267,54.31267 0 0 0 32.85714,-0.92442 c0.20649000000000003,-0.07377000000000002 0.41300000000000003,-0.14754000000000003 0.6146500000000001,-0.22128000000000003 a26.19511,26.19511 0 0 0 -8.334810000000001,-4.30751 a4.19325,4.19325 0 0 0 -0.009850000000000003,-2.3111 a4.651,4.651 0 0 0 -4.49922,-3.26506 H294.8194300537109 a4.63483,4.63483 0 0 0 -4.48938,3.26013 a4.21082,4.21082 0 0 0 -0.009840000000000003,2.316 a26.222,26.222 0 0 0 -7.43493,3.64367 q-0.6860900000000002,0.47945000000000004 -1.3275100000000002,1.00313 C281.23313005371097,323.2347231591797 280.91356005371097,323.5051631591797 280.60359005371095,323.7805331591797 z" fill="#2f2e41" id="path442"/><path d="M319.1746200537109,278.5763531591797 c0,4.43536 2.18322,8.11345 5.02048,8.75271 a4.05816,4.05816 0 0 0 0.8802000000000001,0.09832000000000003 c3.25023,0 5.90069,-3.96821 5.90069,-8.851 a10.86875,10.86875 0 0 0 -2.27182,-6.97264 a5.69356,5.69356 0 0 0 -1.7359200000000001,-1.41124 a4.11422,4.11422 0 0 0 -1.8929500000000001,-0.46715 a4.3143,4.3143 0 0 0 -2.51288,0.8457800000000001 C320.5611900537109,271.98727315917967 319.1746200537109,275.0408631591797 319.1746200537109,278.5763531591797 z" fill="#3f3d56" id="path444"/><path d="M266.5601600537109,278.5763531591797 c0,3.8157900000000002 1.6127500000000001,7.071 3.87473,8.31507 a4.19952,4.19952 0 0 0 2.026,0.536 a3.80084,3.80084 0 0 0 0.47200000000000003,-0.029500000000000005 c3.02885,-0.35895000000000005 5.42865,-4.17473 5.42865,-8.82153 c0,-3.72235 -1.53928,-6.91363 -3.71266,-8.21668 a4.21673,4.21673 0 0 0 -2.188,-0.6343500000000001 a4.11441,4.11441 0 0 0 -1.89318,0.46715 a5.72571,5.72571 0 0 0 -1.74073,1.4161700000000002 A10.88982,10.88982 0 0 0 266.5601600537109,278.5763531591797 z" fill="#3f3d56" id="path446"/><path d="M270.80289005371094,286.0429431591797 a0.7382200000000001,0.7382200000000001 0 0 0 0.6990000000000002,-0.97361 a28.76517,28.76517 0 1 1 55.411,-3.23294 a0.7376200000000002,0.7376200000000002 0 0 0 1.44348,0.30445000000000005 a30.24147,30.24147 0 1 0 -58.25236,3.4000500000000002 A0.7380000000000001,0.7380000000000001 0 0 0 270.80289005371094,286.0429431591797 z" fill="#3f3d56" id="path448"/><path d="M311.7786400537109,264.3173531591797 a3.688,3.688 0 0 1 -0.56959,4.56579 c-1.4287,1.59585 -3.707,1.69653 -5.68522,1.40034 c-2.21979,-0.3323700000000001 -4.57431,-1.37236 -6.82165,-0.67151 c-1.91544,0.59735 -3.28185,2.33468 -5.27182,2.77105 c-1.7648100000000002,0.38700000000000007 -3.8751800000000003,-0.12528 -4.49385,-2.00631 c-0.29729,-0.9039 1.12675,-1.29132 1.4224800000000002,-0.39216000000000006 c0.40024,1.21691 2.1285,1.19265 3.11824,0.8556600000000001 c1.5867400000000003,-0.54024 2.80958,-1.85431 4.36916,-2.482 a9.56045,9.56045 0 0 1 5.70559,0.01564 c1.7644600000000001,0.39733000000000007 3.79511,0.98642 5.55287,0.24422000000000002 c1.30069,-0.54921 2.33562,-2.27912 1.4,-3.5562 c-0.5616500000000001,-0.7666500000000002 0.7178400000000001,-1.50339 1.27376,-0.74455 z" fill="#2f2e41" id="path450"/><path d="M295.5766700537109,327.36029315917966 a55.46229,55.46229 0 0 1 -15.382,-2.16258 c-0.5875900000000001,-0.16495000000000004 -1.205,-0.35294000000000003 -1.82518,-0.5560700000000001 a55.4155,55.4155 0 0 1 -10.04,-4.40919 c-0.5988100000000001,-0.3359000000000001 -1.1999,-0.6902800000000001 -1.8355000000000001,-1.08212 a55.612,55.612 0 0 1 -8.81874,-6.72279 c-0.44676000000000005,-0.41681000000000007 -0.88951,-0.8446700000000001 -1.32241,-1.272 a55.56016,55.56016 0 1 1 58.22678,12.86574 c-0.20294000000000004,0.07419000000000002 -0.41291000000000005,0.1491 -0.6229300000000001,0.22400000000000003 A55.4364,55.4364 0 0 1 295.5766700537109,327.36029315917966 zm0,-108.17925 a52.61688,52.61688 0 0 0 -37.1458,89.88006 c0.40817000000000003,0.40313 0.8307500000000001,0.8113 1.258,1.2101 a52.66784,52.66784 0 0 0 8.3521,6.367 c0.6021700000000001,0.37120000000000003 1.1688,0.70518 1.7338200000000001,1.02211 a52.44556,52.44556 0 0 0 9.50938,4.17629 c0.5839200000000001,0.19136000000000003 1.1608800000000001,0.36711000000000005 1.71833,0.52366 a52.8369,52.8369 0 0 0 31.97052,-0.8963000000000001 l0.5960000000000001,-0.21464000000000003 a52.62112,52.62112 0 0 0 -17.99234,-102.06824 z" fill="#ccc" id="path452"/><path d="M508.42271005371094,593.0243731591797 H217.19818005371093 a13.84469,13.84469 0 0 1 -13.8291,-13.8291 V183.8457731591797 a13.84469,13.84469 0 0 1 13.8291,-13.8291 H508.42271005371094 a13.84469,13.84469 0 0 1 13.8291,13.8291 v395.3495 A13.84469,13.84469 0 0 1 508.42271005371094,593.0243731591797 zM217.19818005371093,171.64361315917967 a12.216,12.216 0 0 0 -12.20214,12.20215 v395.3495 a12.216,12.216 0 0 0 12.20214,12.20215 H508.42271005371094 a12.216,12.216 0 0 0 12.20215,-12.20215 V183.8457731591797 A12.216,12.216 0 0 0 508.42271005371094,171.64361315917967 z" fill="#3f3d56" id="path454"/><path d="M452.0451200537109,272.69690315917967 H369.6386000537109 a6.51929,6.51929 0 1 1 0,-13.03858 h82.40652 a6.51929,6.51929 0 1 1 0,13.03858 z" fill="#6c63ff" id="path456" style="fill:#6fbf94;fill-opacity:0.94117647"/><path d="M478.93720005371097,294.6995131591797 H369.6386000537109 a6.51929,6.51929 0 1 1 0,-13.03858 h109.2986 a6.51929,6.51929 0 0 1 0,13.03858 z" fill="#6c63ff" id="path458" style="fill:#6fbf94;fill-opacity:0.94117647" class=""/><path d="M451.92514005371095,379.08861315917966 H246.68369005371096 a6.51929,6.51929 0 0 1 0,-13.03858 H451.92514005371095 a6.51929,6.51929 0 0 1 0,13.03858 z" fill="#ccc" id="path460"/><path d="M478.8172200537109,401.0912631591797 H246.68369005371096 a6.51929,6.51929 0 0 1 0,-13.03858 H478.8172200537109 a6.51929,6.51929 0 0 1 0,13.03858 z" fill="#ccc" id="path462" class=""/><path d="M451.92514005371095,451.66170315917964 H246.68369005371096 a6.5193,6.5193 0 0 1 0,-13.03859 H451.92514005371095 a6.51929,6.51929 0 0 1 0,13.03859 z" fill="#ccc" id="path464"/><path d="M478.8172200537109,473.66431315917964 H246.68369005371096 a6.5193,6.5193 0 0 1 0,-13.03859 H478.8172200537109 a6.51929,6.51929 0 0 1 0,13.03859 z" fill="#ccc" id="path466"/><path d="M451.92514005371095,524.2347431591797 H246.68369005371096 a6.51929,6.51929 0 0 1 0,-13.03858 H451.92514005371095 a6.51929,6.51929 0 0 1 0,13.03858 z" fill="#ccc" id="path468"/><path d="M478.8172200537109,546.2373531591796 H246.68369005371096 a6.51929,6.51929 0 0 1 0,-13.03858 H478.8172200537109 a6.51929,6.51929 0 1 1 0,13.03858 z" fill="#ccc" id="path470"/><path d="M505.0435900537109,502.99999315917967 a64.2316,64.2316 0 1 0 -0.0004400000000000001,128.46312 h0.0004400000000000001 a64.23166,64.23166 0 0 0 0,-128.46312 z" fill="#cccccc" id="path472" style="fill-opacity: 1;" class="" fill-opacity="1" stroke="#000000" stroke-opacity="1"/><path id="ba2462e0-2d61-4715-874d-575d790dfdd0" data-name="f276b720-7c73-4755-84a7-b208d54eb1fc" d="M498.948990053711,593.9073031591797 a7.79562,7.79562 0 0 1 -4.68966,-1.55861 l-0.08400000000000002,-0.06287000000000001 l-17.66375,-13.5121 a7.84966,7.84966 0 0 1 9.55173,-12.45925 l11.44118,8.77354 l27.03609,-35.27147 A7.84631,7.84631 0 0 1 535.5414300537109,538.3633131591797 l0.00015000000000000007,0.00014000000000000004 l0.0022300000000000006,0.0016400000000000004 l-0.16780000000000003,0.233 l0.17226000000000002,-0.233 a7.85576,7.85576 0 0 1 1.4513,11.003 L505.199350053711,590.8366131591797 a7.85071,7.85071 0 0 1 -6.24352,3.0612 z" fill="#6fbf94" class="" fill-opacity="1"/><rect x="307.2215881347656" y="276.8255615234375" width="5.296599864959717" height="0.9834499955177307" fill="#2f2e41" id="rect1305"/></g></svg>